<svg xmlns="http://www.w3.org/2000/svg" version="1.1" xmlns:xlink="http://www.w3.org/1999/xlink" xmlns:svgjs="http://svgjs.dev/svgjs" width="1500" height="1337" viewBox="0 0 1500 1337"><g transform="matrix(1,0,0,1,-0.8684950585154638,0.541295546558672)"><svg viewBox="0 0 277 247" data-background-color="#3d9970" preserveAspectRatio="xMidYMid meet" height="1337" width="1500" xmlns="http://www.w3.org/2000/svg" xmlns:xlink="http://www.w3.org/1999/xlink"><g id="tight-bounds" transform="matrix(1,0,0,1,0.16038208747252725,-0.09999999999999432)"><svg viewBox="0 0 276.67923582505495 247.2" height="247.2" width="276.67923582505495"><g><svg viewBox="0 0 395.52 353.37868311094314" height="247.2" width="276.67923582505495"><g transform="matrix(1,0,0,1,0,255.32555418266728)"><svg viewBox="0 0 395.52 98.05312892827585" height="98.05312892827585" width="395.52"><g id="textblocktransform"><svg viewBox="0 0 395.52 98.05312892827585" height="98.05312892827585" width="395.52" id="textblock"><g><svg viewBox="0 0 395.52 52.8851724137931" height="52.8851724137931" width="395.52"><g transform="matrix(1,0,0,1,0,0)"><svg width="395.52" viewBox="4.49 -36.08 271.84999999999997 36.35" height="52.8851724137931" data-palette-color="#f0f0f0"><path d="M9.77-20.68L9.77-19.48Q9.77-17.68 10.28-17.25 10.79-16.82 12.6-16.82L12.6-16.82 12.84-16.82 13.06-16.85 13.28-16.85Q17.46-16.85 19.63-18.86 21.8-20.87 21.8-24.29L21.8-24.29 21.8-25.05Q21.8-27.93 20.06-29.54 18.31-31.15 14.97-31.15L14.97-31.15 14.72-31.15 14.5-31.13Q11.82-31.13 10.64-30.54L10.64-30.54Q9.89-30.15 9.89-28.56L9.89-28.56 9.84-28.13 9.81-27.42Q9.81-26 9.81-24.56L9.81-24.56 9.79-23.83 9.79-21.63 9.77-20.68ZM5.13-18.02L5.13-20.68 4.81-29.86Q4.81-33.42 6.13-33.94L6.13-33.94Q8.4-34.81 15.5-34.81L15.5-34.81 16.6-34.81Q21.04-34.81 23.93-32.47L23.93-32.47Q25.46-31.23 26.38-29.28 27.29-27.34 27.29-25L27.29-25 27.29-24.44Q27.29-18.9 22.92-15.67L22.92-15.67Q20.73-14.06 15.78-13.22 10.84-12.38 10.38-11.72L10.38-11.72Q9.67-10.74 9.38-6.77 9.08-2.81 8.86-2.2L8.86-2.2Q8.37-0.76 6.98-0.76L6.98-0.76 6.57-0.76Q5.47-0.76 4.98-1.22 4.49-1.68 4.49-2.81L4.49-2.81 4.49-3.32 4.71-6.4Q4.88-8.84 4.88-10.03L4.88-10.03 4.91-10.57Q4.93-11.11 4.93-11.65L4.93-11.65 4.98-12.72Q5.03-13.79 5.03-14.33L5.03-14.33 5.08-15.38 5.13-18.02ZM42.26-14.36L42.26-14.36Q43.82-14.36 44.94-15.06L44.94-15.06Q45.55-15.45 45.55-16.63L45.55-16.63 45.55-16.77Q45.55-18.53 44.48-19.74 43.41-20.95 41.43-20.95L41.43-20.95 41.14-20.95Q38.91-20.95 37.05-19.29 35.18-17.63 35.18-15.09L35.18-15.09 35.18-14.67Q35.18-13.92 36.33-13.92L36.33-13.92 36.57-13.87 37.45-13.87 37.6-13.89 38.94-13.99 39.11-14.01 40.01-14.09Q40.18-14.11 40.4-14.14 40.62-14.16 41.29-14.26 41.97-14.36 42.26-14.36ZM40.96 0.27L40.96 0.27 40.4 0.27Q37.94 0.24 35.91-0.63L35.91-0.63Q32.03-2.34 30.66-6.49L30.66-6.49Q29.9-8.81 29.9-11.18L29.9-11.18 29.9-12.28Q29.93-14.75 30.86-17.19L30.86-17.19Q32.76-22.12 37.13-23.73L37.13-23.73Q39.18-24.46 41.33-24.46L41.33-24.46 41.87-24.46Q45.33-24.46 47.63-22.33 49.92-20.19 49.92-16.5L49.92-16.5 49.92-16.02Q49.92-13.43 48.26-12.38L48.26-12.38Q46.99-11.57 42.44-10.91 37.89-10.25 36.98-9.96L36.98-9.96Q35.52-9.5 35.52-8.62L35.52-8.62Q35.52-6.4 37.74-4.91L37.74-4.91Q39.04-4.05 41.77-4.05L41.77-4.05Q42.89-4.05 45.27-4.72 47.65-5.4 48.26-5.4L48.26-5.4Q49.7-5.4 49.7-3.93 49.7-2.47 46.91-1.1 44.11 0.27 40.96 0.27ZM59.53-2.75Q57.81-5.32 57.81-11.18 57.81-17.04 57.1-19.17L57.1-19.17Q56.81-20.04 55.94-20.73 55.07-21.41 55.07-22.56 55.07-23.71 56-24.41L56-24.41Q56.2-24.56 56.93-24.99 57.66-25.42 57.91-25.78L57.91-25.78Q58.15-26.12 58.42-28.13L58.42-28.13Q59-32.13 60.57-32.13L60.57-32.13 60.93-32.13Q62.18-32.13 62.69-31.13L62.69-31.13Q62.96-30.64 63.24-28.54 63.52-26.44 64.01-25.79 64.5-25.15 66.5-24.44 68.5-23.73 68.5-22.72 68.5-21.7 66.87-21.19L66.87-21.19Q64.42-20.43 63.94-19.48L63.94-19.48Q62.79-17.26 62.79-10.52L62.79-10.52Q62.79-7.4 63.5-6.24 64.2-5.08 65.47-4.59L65.47-4.59Q65.6-4.54 66.49-4.28 67.38-4.03 67.91-3.63 68.45-3.22 68.45-2.31 68.45-1.39 67.57-0.78L67.57-0.78Q66.65-0.17 64.99-0.17L64.99-0.17Q61.25-0.17 59.53-2.75ZM85.2-14.36L85.2-14.36Q86.76-14.36 87.88-15.06L87.88-15.06Q88.49-15.45 88.49-16.63L88.49-16.63 88.49-16.77Q88.49-18.53 87.42-19.74 86.35-20.95 84.37-20.95L84.37-20.95 84.07-20.95Q81.85-20.95 79.99-19.29 78.12-17.63 78.12-15.09L78.12-15.09 78.12-14.67Q78.12-13.92 79.26-13.92L79.26-13.92 79.51-13.87 80.39-13.87 80.53-13.89 81.88-13.99 82.05-14.01 82.95-14.09Q83.12-14.11 83.34-14.14 83.56-14.16 84.23-14.26 84.9-14.36 85.2-14.36ZM83.9 0.27L83.9 0.27 83.34 0.27Q80.88 0.24 78.85-0.63L78.85-0.63Q74.97-2.34 73.6-6.49L73.6-6.49Q72.84-8.81 72.84-11.18L72.84-11.18 72.84-12.28Q72.87-14.75 73.8-17.19L73.8-17.19Q75.7-22.12 80.07-23.73L80.07-23.73Q82.12-24.46 84.27-24.46L84.27-24.46 84.81-24.46Q88.27-24.46 90.57-22.33 92.86-20.19 92.86-16.5L92.86-16.5 92.86-16.02Q92.86-13.43 91.2-12.38L91.2-12.38Q89.93-11.57 85.38-10.91 80.83-10.25 79.92-9.96L79.92-9.96Q78.46-9.5 78.46-8.62L78.46-8.62Q78.46-6.4 80.68-4.91L80.68-4.91Q81.97-4.05 84.71-4.05L84.71-4.05Q85.83-4.05 88.21-4.72 90.59-5.4 91.2-5.4L91.2-5.4Q92.64-5.4 92.64-3.93 92.64-2.47 89.85-1.1 87.05 0.27 83.9 0.27ZM118.15-15.65L118.15-15.65Q118.15-10.42 120.46-7.4 122.77-4.37 127.21-4.37L127.21-4.37Q129.5-4.37 132.79-5.59 136.07-6.81 136.32-6.81L136.32-6.81Q137.73-6.81 137.73-5.4L137.73-5.4Q137.73-4.64 136.8-3.61 135.88-2.59 133.8-1.54L133.8-1.54Q130.43 0.15 126.82 0.15L126.82 0.15 126.06 0.15Q120.03 0.15 116.44-3.93L116.44-3.93Q114.66-5.93 113.76-9.03 112.85-12.13 112.85-15.6L112.85-15.6 112.85-16.38Q112.88-29.15 121.42-33.2L121.42-33.2Q124.3-34.57 127.21-34.57L127.21-34.57 127.92-34.57Q131.16-34.57 133.89-32.93 136.61-31.3 136.61-29.47 136.61-27.64 135.07-27.64L135.07-27.64Q134.8-27.64 132.08-28.71 129.36-29.79 127.16-29.79 124.96-29.79 123.14-28.82 121.33-27.86 120.35-26.29L120.35-26.29Q118.15-22.78 118.15-15.65ZM143.52-19.24L143.52-19.97Q143.52-21.66 143.93-22.47 144.35-23.29 145.47-23.29 146.59-23.29 148.06-22.49 149.52-21.68 149.7-21.68 149.89-21.68 150.52-22.12L150.52-22.12Q152.89-23.78 154.72-23.78L154.72-23.78 155.4-23.78Q156.53-23.78 157.3-23.17 158.07-22.56 158.07-21.45 158.07-20.34 157.09-19.82L157.09-19.82Q156.67-19.6 155.36-19.46 154.04-19.31 152.78-18.82 151.52-18.33 150.55-16.92L150.55-16.92Q149.13-14.84 149.13-8.84L149.13-8.84 149.03-6.1 148.98-4.54Q148.98-2.37 148.29-1.34 147.59-0.32 145.93-0.32L145.93-0.32 145.57-0.32Q144.1-0.32 143.78-1.81L143.78-1.81Q143.76-1.93 143.76-6.45L143.76-6.45 143.76-11.35 143.74-11.77 143.74-12.57 143.71-12.99Q143.71-13.4 143.71-13.82L143.71-13.82 143.61-16.97 143.52-19.24ZM166.49-6.71L166.49-6.71Q166.49-5.15 168-4.1L168-4.1Q169-3.39 170.83-3.39L170.83-3.39 170.98-3.39Q171.42-3.47 171.91-3.47L171.91-3.47Q173.54-3.47 174.85-4.93 176.15-6.4 176.15-7.74L176.15-7.74 176.2-8.03 176.28-9.33 176.28-10.6Q176.28-11.5 175.68-11.83 175.08-12.16 173.4-12.16L173.4-12.16 173.05-12.16 172.88-12.13 172.57-12.13 171.54-12.06Q171.03-11.99 170.71-11.99L170.71-11.99Q168.95-11.99 167.69-10.89 166.44-9.79 166.44-7.96L166.44-7.96 166.44-7.25Q166.49-6.86 166.49-6.71ZM164.75-20.02L164.75-20.02Q163.14-20.02 163.14-21.78L163.14-21.78Q163.14-23 164.83-23.83L164.83-23.83Q167.51-25.17 170.56-25.17L170.56-25.17 171.74-25.17Q174.18-25.17 176.31-24.29 178.45-23.41 179.6-21.58L179.6-21.58Q181.06-19.26 181.06-11.3L181.06-11.3Q181.06-7.1 181.37-5.1 181.67-3.1 181.67-2.17L181.67-2.17Q181.67-0.34 179.33-0.34L179.33-0.34Q178.28-0.34 177.38-0.98 176.47-1.61 175.93-1.61 175.4-1.61 173.08-0.68 170.76 0.24 168.42 0.24L168.42 0.24Q165.12 0.24 163.25-1.83 161.38-3.91 161.38-6.93L161.38-6.93 161.38-7.5Q161.38-11.21 164.61-13.23L164.61-13.23Q166.71-14.55 171.09-15.04 175.47-15.53 175.71-15.82L175.71-15.82Q176.03-16.19 176.03-17.07L176.03-17.07Q176.03-17.33 176.01-17.63L176.01-17.63Q175.69-21.09 171.13-21.12L171.13-21.12Q169.44-21.12 167.44-20.57 165.44-20.02 164.75-20.02ZM202.35-13.62L202.35-13.62Q202.03-13.62 200.05-9.33 198.08-5.03 197.15-3.64L197.15-3.64Q195.59-1.29 194.32-1.29L194.32-1.29Q191.97-1.29 191.12-3.71L191.12-3.71Q190.07-6.62 188.57-13.65 187.06-20.68 187.06-22.14L187.06-22.14Q187.06-22.97 187.8-22.97L187.8-22.97Q189.43-22.97 190.65-20.51L190.65-20.51Q190.73-20.36 192.68-13.72 194.63-7.08 195.51-7.08L195.51-7.08Q196.15-7.08 197.86-12.94L197.86-12.94Q198.44-14.94 199.03-17.31L199.03-17.31 199.42-19.04Q199.91-21.22 200.03-21.53L200.03-21.53Q200.59-23.12 202.36-23.12 204.13-23.12 204.69-22.01 205.25-20.9 206.79-13.98 208.33-7.06 209.14-7.06 209.94-7.06 212.31-14.25 214.68-21.44 214.8-21.66L214.8-21.66Q215.7-23.17 217.17-23.17L217.17-23.17Q217.63-23.17 217.63-22.58L217.63-22.58Q217.63-20.87 216.54-15.2 215.46-9.52 213.77-4.54L213.77-4.54Q213.24-2.98 212.47-2.25 211.7-1.51 210.26-1.51L210.26-1.51Q207.79-1.51 203.67-10.74L203.67-10.74Q202.4-13.62 202.35-13.62ZM226.2-36.08L226.2-36.08 227-36.08Q228.18-36.08 228.59-35.6 229.01-35.11 229.13-34.38 229.25-33.64 229.25-31.1L229.25-31.1 229.13-25.98 229.13-25.12 229.08-23.83 229.08-22.97 228.96-17.77 228.96-16.92 228.93-16.06Q228.93-11.06 229.04-9.85 229.15-8.64 229.81-5.59 230.47-2.54 230.47-2.51L230.47-2.51Q230.47-1.15 229.9-0.6 229.32-0.05 227.83-0.05L227.83-0.05 227.42-0.05Q225.81-0.05 225.05-1.17L225.05-1.17Q223.93-2.81 223.93-5.83L223.93-5.83 223.93-7.4 223.95-7.81 224-9.4 224.03-9.81Q224.03-10.23 224.03-10.64L224.03-10.64 224.07-12.35 224.07-13.21 224.12-15.38 224.12-16.24 224.2-18.85 224.2-19.7 224.27-22.73Q224.27-23.17 224.27-23.61L224.27-23.61 224.32-25.32 224.32-26.17 224.37-28.32 224.37-30 224.25-33.18Q224.25-34.72 224.68-35.4 225.12-36.08 226.2-36.08ZM247.68-14.36L247.68-14.36Q249.24-14.36 250.37-15.06L250.37-15.06Q250.98-15.45 250.98-16.63L250.98-16.63 250.98-16.77Q250.98-18.53 249.9-19.74 248.83-20.95 246.85-20.95L246.85-20.95 246.56-20.95Q244.34-20.95 242.47-19.29 240.6-17.63 240.6-15.09L240.6-15.09 240.6-14.67Q240.6-13.92 241.75-13.92L241.75-13.92 241.99-13.87 242.87-13.87 243.02-13.89 244.36-13.99 244.53-14.01 245.43-14.09Q245.6-14.11 245.82-14.14 246.04-14.16 246.72-14.26 247.39-14.36 247.68-14.36ZM246.39 0.27L246.39 0.27 245.82 0.27Q243.36 0.24 241.33-0.63L241.33-0.63Q237.45-2.34 236.08-6.49L236.08-6.49Q235.33-8.81 235.33-11.18L235.33-11.18 235.33-12.28Q235.35-14.75 236.28-17.19L236.28-17.19Q238.18-22.12 242.55-23.73L242.55-23.73Q244.6-24.46 246.75-24.46L246.75-24.46 247.29-24.46Q250.76-24.46 253.05-22.33 255.35-20.19 255.35-16.5L255.35-16.5 255.35-16.02Q255.35-13.43 253.69-12.38L253.69-12.38Q252.42-11.57 247.86-10.91 243.31-10.25 242.41-9.96L242.41-9.96Q240.94-9.5 240.94-8.62L240.94-8.62Q240.94-6.4 243.16-4.91L243.16-4.91Q244.46-4.05 247.19-4.05L247.19-4.05Q248.31-4.05 250.7-4.72 253.08-5.4 253.69-5.4L253.69-5.4Q255.13-5.4 255.13-3.93 255.13-2.47 252.33-1.1 249.54 0.27 246.39 0.27ZM261.79-19.24L261.79-19.97Q261.79-21.66 262.2-22.47 262.62-23.29 263.74-23.29 264.87-23.29 266.33-22.49 267.79-21.68 267.98-21.68 268.16-21.68 268.8-22.12L268.8-22.12Q271.16-23.78 272.99-23.78L272.99-23.78 273.68-23.78Q274.8-23.78 275.57-23.17 276.34-22.56 276.34-21.45 276.34-20.34 275.36-19.82L275.36-19.82Q274.95-19.6 273.63-19.46 272.31-19.31 271.05-18.82 269.8-18.33 268.82-16.92L268.82-16.92Q267.4-14.84 267.4-8.84L267.4-8.84 267.31-6.1 267.26-4.54Q267.26-2.37 266.56-1.34 265.87-0.32 264.21-0.32L264.21-0.32 263.84-0.32Q262.37-0.32 262.06-1.81L262.06-1.81Q262.03-1.93 262.03-6.45L262.03-6.45 262.03-11.35 262.01-11.77 262.01-12.57 261.98-12.99Q261.98-13.4 261.98-13.82L261.98-13.82 261.89-16.97 261.79-19.24Z" opacity="1" transform="matrix(1,0,0,1,0,0)" fill="#f0f0f0" class="wordmark-text-0" data-fill-palette-color="primary" id="text-0"></path></svg></g></svg></g><g transform="matrix(1,0,0,1,0,65.37009237655172)"><svg viewBox="0 0 395.52 32.683036551724136" height="32.683036551724136" width="395.52"><g transform="matrix(1,0,0,1,0,0)"><svg width="395.52" viewBox="1.3 -35.5 496.17 41" height="32.683036551724136" data-palette-color="#f0f0f0"><path d="M12.7-35.5L12.7 0 9.8 0 8.5-13.9 5.95-13.9 3.65 0 1.3 0 3.55-35.5 12.7-35.5ZM9.55-33.6Q9.55-33.9 9.25-33.9L9.25-33.9 7.1-33.9Q6.8-33.9 6.8-33.6L6.8-33.6 6.8-16.5Q6.8-16.25 7.1-16.25L7.1-16.25 9.25-16.25Q9.55-16.25 9.55-16.55L9.55-16.55 9.55-33.6ZM36.94-35.5L35.94 1 32.54 1 27.64-27.7 27.44-27.7 26.49 1 23.94 1 25.54-35.5 28.59-35.5 33.64-6.55 33.99-6.55 33.99-35.5 36.94-35.5ZM57.63-35.5L59.68 0 57.48 0 55.68-13.3 51.68-11.4 50.58 0 47.48 0 49.73-35.5 57.63-35.5ZM55.03-33.1Q55.03-33.4 54.73-33.4L54.73-33.4 52.58-32.9Q52.28-32.75 52.28-32.4L52.28-32.4 52.28-14.8Q52.28-14.55 52.58-14.55L52.58-14.55 54.43-14.85Q54.73-14.85 54.73-15.15L54.73-15.15 55.03-33.1ZM80.91-3.45L80.91 0 70.81 0 70.81-35.5 74.51-35.5 74.51-5.25 75.26-4.1 80.91-3.45ZM98.05-18.45L98.9 0 95.05 0 95.05-18.7 90.4-35 94.95-35 96.65-20.65 97.05-20.75 98.55-35.5 102.05-35.5 99.85-21.55 98.05-18.45ZM123.14 0L111.94 0 111.04-1.65 118.24-33.1 111.84-32.3 111.84-35.5 122.14-35.5 116.44-2.8 123.14-2.35 123.14 0ZM144.83-4.15L144.83 0 134.13 0 134.13-35.5 144.83-35.5 144.83-32.4 138.58-32.7 138.58-21.35 144.83-20.2 144.83-17.8 137.73-18.1 137.73-3.75 144.83-4.15ZM157.91 0L156.31-4.6 160.61-4.8 160.41 0 158.01 5.5 155.86 4.75 157.91 0ZM190.24-32.1L190.99-21.05 197.34-19.4 197.34-3Q197.34-1.95 196.29-0.98 195.24 0 194.14 0L194.14 0 186.99 0 186.99-3.4 193.94-3.4 192.74-16.8 186.99-18.3 186.99-33.15Q186.99-33.95 187.62-34.73 188.24-35.5 188.99-35.5L188.99-35.5 197.34-35.5 197.34-33.05 190.24-32.1ZM219.78-4.15L219.78 0 209.08 0 209.08-35.5 219.78-35.5 219.78-32.4 213.53-32.7 213.53-21.35 219.78-20.2 219.78-17.8 212.68-18.1 212.68-3.75 219.78-4.15ZM244.62-9.35L244.62-1 233.97-1 231.92-3.1 232.92-32.65Q232.97-33.75 233.84-34.63 234.72-35.5 236.27-35.5L236.27-35.5 236.92-35.45 244.62-34.45 243.82-26.4 241.52-26.4 241.52-31.05Q241.52-31.5 240.92-31.5L240.92-31.5 237.82-31.5Q236.87-31.5 236.44-30.73 236.02-29.95 236.02-29L236.02-29Q236.02-28.45 236.17-28.35L236.17-28.35 236.17-4.95Q236.02-4.9 236.02-4.8L236.02-4.8Q236.02-4.65 236.47-4.65L236.47-4.65 241.42-4.65Q242.02-4.65 242.02-4.95L242.02-4.95 242.02-8.7 242.97-9.3 244.62-9.35ZM256.4-35L260.1-35 259.05-3.1 263.25-3.4 263.25-34.35 266.75-34.15 266.75 1 255.25 1 256.4-35ZM278.19-34.95Q278.19-35.2 280.24-35.35 282.29-35.5 284.29-35.5L284.29-35.5 286.44-35.5Q287.24-35.5 287.74-34.9 288.24-34.3 288.29-33.35L288.29-33.35 288.79-18.95 286.54-16 290.54-1.1 289.59 0 286.64 0 284.09-15.55 281.54-15.3 280.49 0 278.19 0 278.19-34.95ZM281.34-19.05L285.09-19.25Q285.39-19.25 285.39-19.55L285.39-19.55 285.39-32 284.64-32.75 281.19-32.4 281.34-19.05ZM312.08-4.15L312.08 0 301.38 0 301.38-35.5 312.08-35.5 312.08-32.4 305.83-32.7 305.83-21.35 312.08-20.2 312.08-17.8 304.98-18.1 304.98-3.75 312.08-4.15ZM325.17 0L323.57-4.6 327.87-4.8 327.67 0 325.27 5.5 323.12 4.75 325.17 0ZM365.69-6.05L366.29-1 354.54-1 355.69-35.5 365.84-35.5 365.84-31.6 358.69-31.6 358.69-21.3 364.14-21.3 364.14-18.8 358.94-17.9 358.94-5.15 365.69-6.05ZM387.63-3.45L387.63 0 377.53 0 377.53-35.5 381.23-35.5 381.23-5.25 381.98-4.1 387.63-3.45ZM409.82-4.15L409.82 0 399.12 0 399.12-35.5 409.82-35.5 409.82-32.4 403.57-32.7 403.57-21.35 409.82-20.2 409.82-17.8 402.72-18.1 402.72-3.75 409.82-4.15ZM428.91 0L423.66 0 420.71-35.5 423.86-35.5 426.86-1.25 427.11-1.25 430.46-35 433.76-35 428.91 0ZM452.59-35.5L454.64 0 452.44 0 450.64-13.3 446.64-11.4 445.54 0 442.44 0 444.69-35.5 452.59-35.5ZM449.99-33.1Q449.99-33.4 449.69-33.4L449.69-33.4 447.54-32.9Q447.24-32.75 447.24-32.4L447.24-32.4 447.24-14.8Q447.24-14.55 447.54-14.55L447.54-14.55 449.39-14.85Q449.69-14.85 449.69-15.15L449.69-15.15 449.99-33.1ZM465.18-35.5L475.53-34.8 475.78-31.65 471.38-31.65 471.38 0 467.13 0 468.13-30.75 464.53-31.95 465.18-35.5ZM497.47-4.15L497.47 0 486.77 0 486.77-35.5 497.47-35.5 497.47-32.4 491.22-32.7 491.22-21.35 497.47-20.2 497.47-17.8 490.37-18.1 490.37-3.75 497.47-4.15Z" opacity="1" transform="matrix(1,0,0,1,0,0)" fill="#f0f0f0" class="slogan-text-1" data-fill-palette-color="secondary" id="text-1"></path></svg></g></svg></g></svg></g></svg></g><g transform="matrix(1,0,0,1,82.58214287142498,0)"><svg viewBox="0 0 230.35571425715003 230.35571425715003" height="230.35571425715003" width="230.35571425715003"><g><svg></svg></g><g id="icon-0"><svg viewBox="0 0 230.35571425715003 230.35571425715003" height="230.35571425715003" width="230.35571425715003"><g><path d="M0 115.178c0-63.611 51.567-115.178 115.178-115.178 63.611 0 115.178 51.567 115.178 115.178 0 63.611-51.567 115.178-115.178 115.178-63.611 0-115.178-51.567-115.178-115.178zM115.178 225.586c60.977 0 110.409-49.432 110.408-110.408 0-60.977-49.432-110.409-110.408-110.409-60.977 0-110.409 49.432-110.409 110.409 0 60.977 49.432 110.409 110.409 110.408z" data-fill-palette-color="accent" fill="#f0f0f0" stroke="transparent"></path><ellipse rx="114.02607855728927" ry="114.02607855728927" cx="115.17785712857501" cy="115.17785712857501" fill="#f0f0f0" stroke="transparent" stroke-width="0" fill-opacity="1" data-fill-palette-color="accent"></ellipse></g><g transform="matrix(1,0,0,1,60.84233034370875,45.749128459023694)"><svg viewBox="0 0 108.67105356973252 138.85745733910264" height="138.85745733910264" width="108.67105356973252"><g><svg xmlns="http://www.w3.org/2000/svg" xmlns:xlink="http://www.w3.org/1999/xlink" version="1.1" viewBox="12 2.000000000000007 72.00000000000001 92" x="0" y="0" height="138.85745733910264" width="108.67105356973252" class="icon-cg-0" data-fill-palette-color="quaternary" id="cg-0"><path d="M48 82c-12.132 0-22-9.868-22-22 0-5.648 2.124-10.964 6-15.068 0.028-9.344 7.196-16.932 16-16.932 8.8 0 15.972 7.588 16 16.932 3.876 4.104 6 9.416 6 15.068 0 12.132-9.868 22-22 22zM48 32c-6.616 0-12 5.832-12 13 0.036 0.276 0.056 0.436 0.064 0.604l0.036 0.892-0.64 0.624c-3.524 3.428-5.46 8-5.46 12.88 0 9.92 8.076 18 18 18s18-8.08 18-18c0-4.876-1.94-9.452-5.46-12.88l-0.64-0.624 0.084-1.384c0.016-7.28-5.372-13.112-11.984-13.112z" fill="#3d9970" data-fill-palette-color="quaternary"></path><path d="M42 30c-1.104 0-2-0.896-2-2v-4c0-1.104 0.896-2 2-2s2 0.896 2 2v4c0 1.104-0.9 2-2 2z" fill="#3d9970" data-fill-palette-color="quaternary"></path><path d="M40 28h4v4h-4v-4z" fill="#3d9970" data-fill-palette-color="quaternary"></path><path d="M54 30c-1.104 0-2-0.896-2-2v-4c0-1.104 0.896-2 2-2 1.1 0 2 0.896 2 2v4c0 1.104-0.9 2-2 2z" fill="#3d9970" data-fill-palette-color="quaternary"></path><path d="M52 28h4v4h-4v-4z" fill="#3d9970" data-fill-palette-color="quaternary"></path><path d="M61.612 43.52c-0.66 0-1.308-0.328-1.688-0.924-0.588-0.932-0.32-2.168 0.604-2.76l7.46-4.756v-31.08c0-1.104 0.9-2 2-2 1.104 0 2 0.896 2 2v32.172c0 0.684-0.344 1.32-0.92 1.684l-8.384 5.348c-0.332 0.212-0.7 0.316-1.072 0.316z" fill="#3d9970" data-fill-palette-color="quaternary"></path><path d="M61.932 47.688c-0.832 0-1.604-0.52-1.896-1.348-0.36-1.044 0.2-2.184 1.252-2.54l14.712-5.052v-30.748c0-1.104 0.9-2 2-2 1.104 0 2 0.896 2 2v32.172c0 0.852-0.54 1.612-1.344 1.892l-16.068 5.516c-0.22 0.072-0.44 0.108-0.656 0.108z" fill="#3d9970" data-fill-palette-color="quaternary"></path><path d="M34.064 47.688c-0.216 0-0.432-0.036-0.652-0.108l-16.064-5.516c-0.812-0.276-1.348-1.036-1.348-1.892v-32.172c0-1.104 0.896-2 2-2s2 0.896 2 2v30.744l14.716 5.052c1.044 0.356 1.6 1.496 1.248 2.54-0.296 0.832-1.068 1.352-1.9 1.352z" fill="#3d9970" data-fill-palette-color="quaternary"></path><path d="M34.384 43.52c-0.368 0-0.74-0.1-1.076-0.316l-8.388-5.348c-0.576-0.368-0.92-1-0.92-1.684v-32.172c0-1.104 0.896-2 2-2s2 0.896 2 2v31.076l7.46 4.756c0.928 0.592 1.204 1.832 0.608 2.76-0.384 0.6-1.028 0.928-1.684 0.928z" fill="#3d9970" data-fill-palette-color="quaternary"></path><path d="M74 90c-1.104 0-2-0.9-2-2v-29.8l-11.46-11.076c-0.788-0.768-0.812-2.032-0.048-2.828 0.768-0.792 2.032-0.816 2.828-0.048l12.068 11.668c0.388 0.376 0.604 0.896 0.604 1.432v30.648c0.008 1.104-0.892 2.004-1.992 2.004z" fill="#3d9970" data-fill-palette-color="quaternary"></path><path d="M82 94c-1.104 0-2-0.9-2-2v-37.272l-18.776-7.168c-1.036-0.396-1.552-1.552-1.156-2.584s1.56-1.548 2.584-1.156l20.064 7.664c0.776 0.292 1.284 1.036 1.284 1.864v38.648c0 1.104-0.9 2.004-2 2.004z" fill="#3d9970" data-fill-palette-color="quaternary"></path><path d="M22 90c-1.104 0-2-0.9-2-2v-30.648c0-0.544 0.22-1.06 0.608-1.436l12.064-11.664c0.8-0.768 2.064-0.748 2.828 0.048 0.768 0.796 0.748 2.06-0.048 2.828l-11.456 11.076v29.8c0.004 1.096-0.896 1.996-1.996 1.996z" fill="#3d9970" data-fill-palette-color="quaternary"></path><path d="M14 94c-1.104 0-2-0.9-2-2v-38.648c0-0.808 0.484-1.536 1.228-1.844l20-8.352c1.012-0.424 2.192 0.056 2.616 1.076s-0.056 2.192-1.076 2.616l-18.772 7.836v37.316c0.004 1.1-0.896 2-1.996 2z" fill="#3d9970" data-fill-palette-color="quaternary"></path></svg></g></svg></g></svg></g></svg></g><g></g></svg></g><defs></defs></svg><rect width="276.67923582505495" height="247.2" fill="none" stroke="none" visibility="hidden"></rect></g></svg></g></svg>